Coordinates
version=1
nRows=12
nColumns=33
inDegrees=yes

Units are S.I. units (second, meters, Newtons, ...)
Angles are in degrees.

endheader
time	ground_thorax_rot_x	ground_thorax_rot_y	ground_thorax_rot_z	ground_thorax_tx	ground_thorax_ty	ground_thorax_tz	clav_prot_r	clav_elev_r	scapula_abduction_r	scapula_elevation_r	scapula_upward_rot_r	scapula_winging_r	shoulder_elv_r	plane_of_elev_r	axial_rot_r	elbow_flexion_r	pro_sup_r	wrist_flex_r	wrist_dev_r	clav_prot_l	clav_elev_l	scapula_abduction_l	scapula_elevation_l	scapula_upward_rot_l	scapula_winging_l	shoulder_elv_l	plane_of_elev_l	axial_rot_l	elbow_flexion_l	pro_sup_l	wrist_flex_l	wrist_dev_l
      5.08000000	     -5.17897151	      2.74034517	     10.51613116	     -0.09530868	      1.02725431	      0.00882031	     17.02335753	    -10.01064504	     44.65151844	    -11.46320413	     26.09626915	    -14.52545814	     -5.49815422	    -52.02855169	    119.13200283	    -35.56741230	   -132.10145931	     -0.01988095	      2.78956173	     26.83718272	    -11.03485133	    -40.47605729	     -5.71280675	    -24.65269595	     14.35460832	     59.74348211	      1.94483141	     13.75094731	     13.59642215	     22.57598406	     12.76676382	     -8.83572349
      5.09000000	     -4.64385627	      2.80412218	     10.43274374	     -0.09439321	      1.02758463	      0.00914779	     16.76819900	     -9.35208220	     45.00000000	    -11.17036009	     27.12615376	    -14.89637861	     -6.71448803	    -52.84815977	    118.27866239	    -34.99874571	   -135.03217151	      2.67256784	      1.20816394	     25.98315031	    -11.75418092	    -39.00434141	     -4.91450678	    -24.10803550	     13.27078644	     59.80807766	      0.76865559	     12.89914452	     14.15653322	     21.43644009	     12.85090113	     -9.74421949
      5.10000000	     -4.64477229	      3.02291715	     10.36695493	     -0.09495949	      1.02734135	      0.00904503	     16.80902601	     -9.32995735	     45.00000000	    -11.12794791	     27.03217109	    -14.92738260	     -6.63321740	    -52.97548480	    118.21531708	    -35.02893024	   -135.08943597	      2.65961612	      1.16272994	     25.91352247	    -11.65840852	    -38.90705581	     -4.97569537	    -24.05807163	     13.23908615	     59.83045293	      0.83736593	     12.95171748	     14.40476122	     21.39113621	     12.83940656	     -9.78274391
      5.11000000	     -4.62936034	      2.99094201	     10.32340142	     -0.09474349	      1.02678074	      0.00906157	     16.91204040	     -9.33450883	     44.87697021	    -11.03028365	     26.62268129	    -14.93134048	     -6.77030417	    -53.00578548	    118.06341608	    -35.82390202	   -135.63070607	      2.77857192	      0.97242274	     25.58911039	    -11.34852880	    -38.40989577	     -5.32591037	    -24.21494786	     13.00585508	     59.76211193	      0.70657139	     13.23793571	     15.52732008	     21.15930222	     12.84293865	     -9.98627480
      5.12000000	     -4.60531868	      2.71847364	     10.26062295	     -0.09456124	      1.02705271	      0.00869972	     17.23679900	    -10.01598711	     45.00000000	    -11.46701560	     26.11841194	    -14.69439397	     -6.55268111	    -53.59204600	    118.41733954	    -36.56847348	   -140.05526281	      2.74417828	      0.72818035	     24.42293616	    -11.34790902	    -36.49098708	     -5.37509611	    -24.18556712	     11.83120152	     60.20531038	      0.34897903	     12.68502547	     16.09854990	     20.82651519	     13.52905174	     -9.99165278
      5.13000000	     -4.48446940	      2.79266150	     10.38105599	     -0.09489885	      1.02658779	      0.00878106	     17.19694562	     -9.85219290	     44.70976880	    -11.24592820	     25.77274828	    -14.70269620	     -6.75090969	    -53.70930112	    118.40942089	    -37.12214586	   -140.28509221	      2.90798566	      0.57334700	     24.24547217	    -11.29281726	    -36.19686876	     -5.51046026	    -24.35811479	     11.65942804	     60.08986600	      0.18979518	     13.12037021	     16.97299877	     20.72395729	     13.43804116	    -10.17355013
      5.14000000	     -4.38081089	      2.87955829	     10.44616283	     -0.09525849	      1.02621771	      0.00889435	     17.17957445	     -9.75795833	     44.37724461	    -11.05563499	     25.31962109	    -14.66386381	     -6.91334128	    -53.77015104	    118.26582219	    -37.84951311	   -140.69256744	      3.10272874	      0.48456864	     24.04338674	    -11.26936374	    -35.85695601	     -5.62706494	    -24.54435984	     11.45010532	     60.07102882	      0.00942426	     13.45834124	     17.89903437	     20.69002671	     13.41118041	    -10.37654101
      5.15000000	     -4.29916140	      2.94210519	     10.54336985	     -0.09562141	      1.02590393	      0.00899076	     17.14766176	     -9.72463734	     43.97014629	    -10.89740500	     24.79452156	    -14.56173061	     -7.13439355	    -53.84792898	    118.09501568	    -38.69933797	   -141.27367262	      3.32591222	      0.45713573	     23.80475067	    -11.25530779	    -35.45310303	     -5.76396433	    -24.78700484	     11.19653013	     60.09376010	     -0.21655068	     13.77612766	     18.92266348	     20.72395897	     13.44118483	    -10.60667394
      5.16000000	     -4.22709419	      2.99065319	     10.62504157	     -0.09601223	      1.02566905	      0.00915794	     17.09432822	     -9.73603848	     43.51313823	    -10.76913952	     24.24586127	    -14.41267112	     -7.38697843	    -53.92796699	    117.90575298	    -39.64322505	   -141.98303717	      3.56252221	      0.46650390	     23.54171476	    -11.23235690	    -35.00930685	     -5.92118262	    -25.05473576	     10.92188311	     60.16093672	     -0.45420912	     14.09359148	     20.01325741	     20.82026432	     13.51317413	    -10.85155447
      5.17000000	     -4.30280611	      2.94806632	     10.65801448	     -0.09610541	      1.02631212	      0.00878728	     16.86891625	    -10.66815855	     42.59896814	    -11.36592130	     23.49370693	    -13.53806609	     -7.37362219	    -54.46300058	    118.17867583	    -40.69338964	   -146.47343292	      3.76233345	      0.67075887	     22.80822073	    -11.35432384	    -33.76185994	     -6.03932428	    -25.45698663	     10.12198134	     60.85022973	     -0.76192490	     14.16593898	     21.12184212	     22.38763374	     14.55873122	    -11.26040742
      5.18000000	     -4.20079486	      2.95772448	     10.61271765	     -0.09652643	      1.02599128	      0.00913865	     16.80761421	    -10.47359659	     42.18151270	    -11.07391678	     23.00044897	    -13.52138963	     -7.63090198	    -54.40019390	    118.03178803	    -41.76115954	   -146.76503060	      3.99861307	      0.47023931	     22.61501540	    -11.20760430	    -33.45693772	     -6.26021870	    -25.64070015	      9.97540307	     60.78580895	     -0.94480816	     14.64656380	     22.26654495	     22.34254175	     14.48285826	    -11.51315741
      5.19000000	     -4.10842431	      2.95134187	     10.96925429	     -0.09711077	      1.02583707	      0.00934564	     16.76448091	    -10.54374545	     41.58221637	    -10.92412860	     22.21251485	    -13.29822347	     -8.04403509	    -54.55842974	    117.79638519	    -42.82831236	   -147.75628901	      4.20617381	      0.34332148	     22.33640097	    -11.18091955	    -32.98671233	     -6.50150366	    -26.07905223	      9.67918001	     60.74538688	     -1.34892659	     14.86089886	     23.50922136	     22.61555230	     14.59356117	    -11.81755089
